<?xml version="1.0" standalone="no"?>
<!DOCTYPE svg PUBLIC "-//W3C//DTD SVG 20010904//EN"
 "http://www.w3.org/TR/2001/REC-SVG-20010904/DTD/svg10.dtd">
<svg version="1.0" xmlns="http://www.w3.org/2000/svg"
 width="1408.000000pt" height="520.000000pt" viewBox="0 0 1408.000000 520.000000"
 preserveAspectRatio="xMidYMid meet">

<g transform="translate(0.000000,520.000000) scale(0.100000,-0.100000)"
fill="#000000" stroke="none">
<path d="M4855 4400 c-11 -5 -34 -9 -52 -9 -17 -1 -35 -5 -38 -11 -3 -5 -17
-10 -30 -10 -25 0 -63 -14 -150 -56 -28 -13 -54 -24 -58 -24 -5 0 -49 -27 -98
-60 -83 -54 -144 -108 -194 -171 -11 -13 -39 -47 -61 -74 -23 -28 -52 -72 -64
-100 -12 -27 -26 -58 -31 -67 -5 -10 -9 -27 -9 -37 0 -11 -4 -22 -9 -25 -10
-6 -19 -59 -27 -152 -6 -61 18 -174 35 -174 5 0 14 -12 20 -28 14 -33 78 -97
106 -105 11 -4 58 -11 105 -17 47 -6 110 -15 140 -20 48 -9 189 -2 300 15 14
2 44 4 67 4 23 1 48 8 57 16 8 8 17 15 20 15 14 0 106 44 106 51 0 4 10 9 23
13 44 11 195 88 207 105 9 13 39 21 55 15 8 -3 25 -25 38 -48 19 -35 24 -58
25 -131 0 -50 4 -160 8 -245 3 -85 8 -180 9 -210 1 -30 6 -112 10 -183 8 -134
-3 -332 -30 -512 -8 -55 -18 -122 -21 -150 -3 -27 -12 -77 -20 -109 -8 -32
-17 -74 -20 -92 -6 -52 -20 -104 -44 -164 -12 -30 -26 -70 -31 -87 -6 -18 -14
-33 -19 -33 -6 0 -10 -12 -10 -26 0 -14 -5 -35 -12 -47 -7 -12 -13 -29 -13
-37 -1 -8 -13 -37 -27 -65 -14 -27 -29 -64 -32 -82 -4 -17 -14 -37 -22 -44 -8
-6 -14 -18 -14 -25 0 -8 -4 -14 -10 -14 -5 0 -10 -6 -10 -12 -1 -14 -65 -88
-78 -88 -4 -1 -20 -19 -37 -41 -16 -22 -38 -49 -47 -60 -10 -10 -18 -23 -18
-27 0 -9 -6 -18 -87 -116 -114 -139 -296 -306 -333 -306 -10 0 -21 -4 -25 -9
-8 -14 -65 -41 -84 -41 -9 0 -26 -7 -38 -15 -11 -8 -52 -17 -89 -20 -59 -5
-76 -2 -114 17 -39 20 -48 31 -72 88 -14 36 -48 94 -75 130 -75 100 -143 207
-143 223 0 8 -7 20 -15 27 -8 6 -14 19 -13 28 1 10 -15 53 -37 97 -21 44 -39
87 -40 96 -1 9 -16 56 -33 105 -17 49 -36 110 -41 135 -6 25 -26 73 -45 107
-22 39 -30 62 -23 65 8 2 6 10 -6 21 -9 10 -17 25 -17 35 0 9 -4 21 -9 27 -11
11 -34 141 -27 153 3 4 -4 22 -15 39 -10 18 -19 41 -19 52 0 11 -11 49 -25 85
-13 36 -21 65 -18 65 4 0 2 5 -5 12 -7 7 -12 19 -12 29 0 9 -10 36 -23 60 -13
24 -29 67 -36 94 -29 112 -61 193 -84 217 -7 7 -24 40 -37 73 -13 33 -28 67
-35 75 -6 8 -18 31 -25 50 -7 19 -30 51 -51 71 -21 20 -36 39 -33 42 3 3 -8
15 -25 28 -17 13 -31 29 -31 36 0 7 -5 13 -10 13 -6 0 -15 10 -21 23 -6 12
-26 33 -44 47 -19 14 -37 33 -40 43 -4 9 -13 17 -22 17 -8 0 -36 20 -61 45
-25 25 -49 45 -54 45 -8 0 -138 97 -148 110 -3 4 -25 18 -50 30 -25 13 -57 33
-72 46 -15 12 -44 28 -65 34 -21 7 -42 16 -48 20 -18 14 -119 50 -141 50 -12
0 -27 7 -34 15 -7 8 -27 15 -45 15 -17 0 -35 3 -39 7 -15 16 -304 83 -356 83
-15 0 -43 6 -61 14 -30 12 -131 24 -266 31 -22 2 -46 6 -53 10 -6 4 -95 9
-198 12 -103 2 -214 7 -247 10 -112 11 -486 -3 -550 -20 -11 -3 -23 -6 -27 -6
-5 -1 -8 -8 -8 -16 0 -20 69 -49 85 -35 7 6 15 6 23 -2 9 -9 18 -9 37 0 32 15
151 16 160 2 9 -15 303 -7 332 8 29 16 44 15 57 -3 8 -11 38 -17 115 -21 57
-2 108 -7 114 -11 5 -3 28 -7 51 -8 66 -4 229 -25 251 -32 11 -4 28 -6 38 -4
10 1 24 -2 30 -8 7 -5 37 -13 67 -16 29 -4 69 -13 88 -21 19 -8 45 -14 58 -14
12 0 26 -4 29 -10 3 -5 20 -10 38 -10 30 0 89 -19 232 -75 33 -13 81 -27 107
-30 25 -3 52 -13 58 -20 7 -8 20 -15 29 -15 9 0 21 -4 27 -9 5 -5 45 -28 89
-51 44 -23 82 -46 85 -49 3 -4 23 -20 44 -37 22 -16 54 -42 70 -57 17 -15 51
-40 76 -54 25 -15 54 -38 65 -52 20 -26 104 -122 154 -176 41 -44 73 -92 110
-165 19 -36 39 -71 45 -79 5 -7 11 -19 12 -26 1 -7 9 -28 17 -46 8 -19 20 -50
27 -69 7 -19 19 -49 26 -67 8 -17 14 -34 14 -38 0 -5 16 -48 35 -96 19 -49 35
-100 35 -113 0 -13 16 -66 36 -117 39 -101 73 -220 81 -284 3 -22 11 -50 19
-62 8 -12 14 -33 14 -47 0 -14 5 -28 10 -31 6 -3 10 -16 10 -28 0 -12 11 -43
25 -69 14 -26 25 -56 25 -67 0 -11 4 -22 9 -25 4 -3 11 -22 14 -42 3 -20 15
-60 26 -88 10 -28 25 -71 31 -96 19 -69 69 -191 95 -230 13 -19 46 -89 72
-155 65 -161 132 -260 205 -300 124 -70 181 -82 292 -65 67 10 193 57 246 91
8 5 29 16 47 24 17 8 34 19 38 25 3 5 29 21 57 35 28 14 62 36 76 48 63 54
210 207 237 246 61 88 85 117 131 166 51 53 62 68 91 125 10 19 28 46 41 60
12 14 22 30 22 37 0 14 34 78 73 140 15 24 27 47 27 51 0 17 40 137 60 179 11
23 23 60 26 83 4 22 11 43 15 46 5 3 9 18 9 33 0 15 4 31 9 37 12 13 41 145
41 188 0 20 7 53 15 73 19 50 34 176 27 241 -2 29 0 78 7 110 11 61 18 453 7
470 -19 32 -26 675 -7 711 7 12 10 25 7 30 -9 13 35 130 86 229 52 101 57 130
32 192 -16 39 -17 40 -66 40 -42 0 -54 -5 -76 -29 -50 -53 -73 -100 -61 -123
7 -14 8 -28 0 -46 -5 -15 -13 -42 -17 -61 -7 -37 -68 -121 -112 -154 -15 -12
-29 -24 -32 -27 -15 -18 -61 -7 -95 22 -31 28 -35 36 -29 63 4 16 10 32 13 35
12 9 51 77 51 89 0 7 11 37 25 66 33 74 55 204 43 260 -8 39 -48 131 -48 111
0 -5 -12 9 -26 30 -29 43 -36 48 -113 101 -70 48 -212 76 -266 53z m140 -156
c17 -2 44 -17 62 -32 17 -15 45 -34 61 -44 47 -25 81 -85 88 -154 6 -54 3 -66
-20 -108 -14 -26 -26 -53 -26 -60 0 -7 -9 -23 -20 -36 -11 -13 -20 -31 -20
-42 0 -10 -5 -18 -11 -18 -5 0 -16 -15 -24 -32 -7 -18 -26 -42 -42 -54 -15
-12 -42 -48 -59 -81 -36 -70 -60 -96 -100 -111 -16 -6 -53 -19 -81 -30 -29
-11 -53 -18 -53 -16 0 2 -16 -3 -36 -11 -20 -8 -45 -15 -56 -15 -10 0 -29 -7
-42 -15 -14 -9 -45 -15 -82 -15 -32 0 -68 0 -79 0 -11 0 -50 7 -86 16 -53 12
-74 24 -109 58 -24 24 -49 58 -56 77 -24 65 -14 175 21 229 5 8 19 33 31 55
39 75 49 90 85 135 65 80 103 116 154 145 28 16 56 35 64 42 20 21 79 48 156
73 39 12 92 30 120 40 46 16 77 17 160 4z"/>
<path d="M11270 4360 c0 -5 -9 -10 -20 -10 -27 0 -103 -57 -124 -93 -37 -65
11 -207 70 -207 13 0 27 -7 30 -15 6 -15 49 -12 68 6 6 5 17 9 27 9 47 0 109
92 109 162 0 59 -20 116 -48 139 -26 20 -112 27 -112 9z"/>
<path d="M13558 4167 c-29 -4 -65 -16 -80 -27 -15 -11 -32 -20 -38 -20 -6 0
-10 -10 -8 -22 2 -16 12 -24 33 -28 17 -4 44 -14 62 -23 25 -13 41 -15 80 -8
26 5 51 7 55 5 4 -3 25 0 45 5 26 7 42 19 51 38 19 43 15 72 -10 77 -43 10
-136 11 -190 3z"/>
<path d="M12885 4160 c-38 -4 -200 -11 -360 -15 -159 -4 -300 -11 -312 -16
-14 -5 -23 -5 -23 1 0 11 -30 1 -48 -16 -16 -17 -26 -67 -18 -97 4 -19 16 -27
48 -34 50 -12 406 -6 458 7 19 5 90 9 158 9 67 0 156 5 197 12 40 6 86 9 102
6 15 -3 51 -1 78 4 96 19 178 41 189 50 6 5 21 18 33 28 20 16 21 20 8 38 -14
20 -25 21 -167 22 -84 1 -180 3 -213 5 -33 2 -91 0 -130 -4z"/>
<path d="M6589 3985 c-23 -13 -79 -76 -79 -89 0 -3 -9 -15 -20 -26 -11 -11
-20 -27 -20 -37 0 -9 -13 -28 -29 -42 -15 -14 -31 -38 -34 -52 -4 -14 -21 -41
-39 -60 -64 -68 -123 -140 -133 -162 -5 -12 -12 -24 -15 -27 -10 -10 -40 -76
-46 -105 -4 -16 -15 -42 -26 -57 -18 -26 -38 -85 -57 -168 -5 -19 -13 -46 -19
-60 -6 -14 -20 -58 -32 -97 -12 -40 -26 -73 -31 -73 -5 0 -9 -12 -9 -26 0 -14
-6 -38 -14 -52 -17 -34 -41 -95 -57 -147 -6 -22 -17 -47 -24 -55 -25 -30 -47
-158 -34 -197 12 -39 35 -53 82 -53 30 0 40 7 66 42 17 23 31 49 31 58 0 9 9
33 20 55 11 22 20 50 20 62 0 13 4 23 9 23 5 0 13 10 17 23 3 12 14 33 24 47
9 14 25 52 34 85 49 162 60 194 82 243 13 29 24 57 24 62 0 5 11 17 25 26 14
9 25 23 25 31 0 7 6 24 14 36 7 12 16 51 20 87 6 73 34 168 64 220 11 19 32
69 48 110 29 78 63 119 100 120 15 0 32 -16 56 -52 l35 -53 -2 -120 c-2 -100
1 -129 17 -175 12 -30 26 -81 33 -113 14 -63 52 -127 76 -127 8 0 20 -5 25
-10 17 -17 95 30 106 63 6 15 14 27 20 27 5 0 6 5 3 11 -8 12 43 80 121 161
30 31 54 61 54 67 0 18 73 139 87 145 33 14 61 -13 99 -94 9 -19 25 -44 36
-54 38 -36 167 -46 273 -22 33 7 80 14 105 15 25 0 106 5 180 11 74 5 167 12
205 15 39 2 119 11 179 19 59 9 126 13 147 10 22 -4 39 -3 39 2 0 5 44 10 98
11 53 1 158 9 232 18 74 9 196 18 270 21 74 3 149 10 165 15 17 6 109 12 205
15 96 3 222 9 280 13 58 3 420 5 805 4 982 -3 1029 -4 1041 -14 6 -5 28 -9 50
-8 21 0 73 0 114 0 41 -1 102 2 135 6 33 3 89 6 125 5 36 -1 162 -1 280 -1
252 2 228 2 355 -6 153 -9 584 -7 642 3 38 6 58 6 70 -3 21 -15 93 -25 93 -13
0 12 38 10 62 -3 11 -6 56 -11 101 -12 75 -2 83 -4 92 -24 5 -13 13 -23 17
-23 4 0 18 -12 32 -27 24 -25 26 -26 44 -10 10 9 28 17 39 17 47 0 81 49 96
136 9 49 -22 60 -193 69 -80 5 -161 9 -180 11 -141 13 -1585 29 -2131 23 -144
-1 -262 2 -270 7 -13 8 -565 14 -1049 11 -118 -1 -251 0 -295 1 -44 1 -118 -3
-164 -8 -46 -6 -120 -11 -165 -11 -44 0 -146 -6 -226 -14 -80 -8 -174 -17
-210 -20 -36 -3 -94 -9 -130 -15 -58 -8 -322 -23 -455 -25 -27 -1 -66 -4 -85
-7 -19 -4 -93 -12 -165 -18 -71 -6 -141 -15 -155 -20 -14 -5 -81 -11 -150 -14
-154 -7 -205 -12 -219 -20 -28 -18 -148 -7 -219 19 -69 26 -72 29 -72 59 0 17
7 56 15 86 29 105 29 114 1 147 -38 45 -74 49 -113 10 -18 -17 -33 -41 -33
-53 0 -12 -7 -27 -15 -34 -8 -7 -15 -25 -15 -39 0 -20 -13 -40 -47 -71 -27
-25 -52 -45 -58 -45 -12 -1 -115 -98 -115 -109 0 -4 -11 -22 -25 -40 -14 -18
-25 -40 -25 -49 0 -24 -35 -39 -83 -35 l-42 3 -7 55 c-15 108 -31 186 -45 220
-21 51 -34 124 -38 210 -4 72 -5 76 -41 108 -41 35 -65 39 -105 17z"/>
</g>
</svg>
