<?xml version="1.0" standalone="no"?>
<!DOCTYPE svg PUBLIC "-//W3C//DTD SVG 20010904//EN"
 "http://www.w3.org/TR/2001/REC-SVG-20010904/DTD/svg10.dtd">
<svg version="1.0" xmlns="http://www.w3.org/2000/svg"
 width="1440.000000pt" height="576.000000pt" viewBox="0 0 1440.000000 576.000000"
 preserveAspectRatio="xMidYMid meet">
<metadata>
Created by potrace 1.16, written by Peter Selinger 2001-2019
</metadata>
<g transform="translate(0.000000,576.000000) scale(0.067039,-0.049485)"
fill="#000000" stroke="none">
<path d="M8520 7070 c-8 -5 -35 -10 -60 -10 -28 0 -56 -8 -75 -20 -16 -11 -42
-20 -56 -20 -15 0 -38 -9 -52 -20 -14 -11 -45 -29 -68 -40 -73 -34 -150 -94
-229 -177 -102 -109 -180 -220 -180 -258 0 -6 -9 -29 -19 -51 -23 -48 -45
-184 -36 -225 23 -102 102 -202 172 -215 18 -3 36 -11 39 -16 3 -5 18 -6 33
-3 16 3 63 -3 109 -15 59 -15 86 -18 100 -11 15 8 104 15 286 21 11 1 36 9 55
19 44 23 157 80 191 97 14 7 41 20 61 28 47 20 76 62 60 88 -6 10 -11 26 -11
37 0 10 -7 24 -15 31 -17 14 -12 44 11 71 13 14 12 18 -2 30 -16 13 -17 12
-12 -9 4 -13 2 -20 -3 -16 -18 11 -94 -63 -121 -118 -24 -47 -73 -98 -94 -98
-4 0 -15 -6 -23 -13 -9 -7 -34 -19 -56 -26 -42 -13 -78 -27 -107 -42 -10 -5
-25 -9 -33 -9 -9 0 -29 -7 -45 -15 -18 -9 -60 -16 -107 -16 -43 -1 -85 -5 -94
-10 -9 -4 -20 -4 -25 1 -6 6 -29 11 -52 13 -33 2 -53 12 -97 51 -77 66 -109
131 -109 218 0 37 5 77 11 90 67 148 114 226 181 298 88 95 222 190 291 205
17 4 33 11 36 16 4 5 14 9 25 9 10 0 51 11 92 25 97 33 165 33 232 -1 28 -14
58 -32 67 -40 8 -8 20 -14 25 -14 16 0 111 -103 119 -129 6 -18 9 -20 16 -10
18 29 8 71 -36 139 -44 68 -123 139 -156 140 -8 0 -24 7 -35 15 -22 17 -180
21 -204 5z"/>
<path d="M14953 7035 c-18 -7 -52 -32 -77 -56 -44 -40 -57 -71 -36 -84 6 -3 7
-17 4 -30 -8 -32 29 -85 60 -85 12 0 27 -5 32 -10 14 -14 72 7 107 39 37 34
61 78 46 86 -6 5 -4 11 6 19 35 25 -34 136 -84 136 -14 -1 -40 -7 -58 -15z"/>
<path d="M16451 6843 c-52 -2 -100 -8 -105 -12 -6 -5 -64 -7 -129 -5 -64 2
-137 0 -162 -5 -26 -5 -48 -5 -51 0 -11 19 -108 4 -151 -24 -40 -25 19 -104
67 -91 14 3 79 6 145 5 66 -1 156 4 200 9 44 6 156 13 249 15 93 3 174 9 180
14 6 4 56 8 112 8 87 -1 106 2 138 21 20 12 34 16 30 10 -4 -7 1 -5 11 4 15
14 16 20 6 32 -8 9 -17 13 -22 10 -5 -3 -14 -2 -19 1 -12 7 -365 13 -499 8z"/>
<path d="M17242 6838 c-24 -24 -14 -45 26 -52 105 -17 174 3 151 45 -8 16 -22
19 -87 19 -47 0 -83 -5 -90 -12z"/>
<path d="M9221 6662 c-23 -22 -30 -40 -35 -94 -4 -37 -16 -90 -27 -118 -22
-57 -84 -145 -124 -174 -25 -19 -33 -50 -16 -60 4 -3 11 -24 15 -47 4 -23 10
-47 14 -53 10 -17 13 -121 8 -276 -2 -52 0 -113 5 -135 20 -91 29 -467 14
-590 -4 -33 -11 -96 -15 -140 -18 -168 -41 -323 -61 -403 -11 -45 -19 -95 -17
-111 1 -15 -7 -48 -19 -72 -29 -58 -73 -172 -88 -231 -7 -26 -27 -73 -44 -104
-17 -32 -31 -65 -31 -74 0 -10 -9 -29 -20 -43 -11 -14 -20 -32 -20 -40 0 -9
-28 -46 -62 -84 -82 -88 -138 -158 -138 -169 0 -5 -29 -40 -65 -79 -36 -38
-65 -73 -65 -77 0 -4 -50 -57 -112 -118 -94 -92 -125 -116 -192 -149 -170 -80
-247 -95 -338 -66 -66 22 -96 48 -104 94 -9 45 -42 99 -126 202 -38 45 -68 88
-68 94 0 22 -25 36 -40 22 -12 -10 -12 -9 -2 4 14 18 -6 99 -32 134 -9 11 -16
28 -16 37 0 10 -13 39 -28 65 -16 27 -37 77 -46 113 -10 36 -22 73 -27 82 -5
10 -9 26 -9 35 -1 10 -9 36 -20 58 -11 22 -19 47 -20 56 0 9 -11 37 -25 63
-14 26 -25 54 -25 62 0 8 -4 22 -9 32 -17 30 -52 172 -56 222 -1 8 -4 22 -8
30 -3 8 -17 49 -31 90 -41 120 -57 164 -66 175 -4 5 -12 30 -18 55 -33 141
-68 236 -97 260 -8 7 -15 17 -15 22 0 10 -28 76 -71 163 -27 56 -91 135 -109
135 -5 0 -22 21 -39 47 -26 39 -229 233 -244 233 -2 0 -22 16 -43 35 -21 19
-42 35 -47 35 -5 0 -36 23 -69 50 -33 28 -67 50 -76 50 -9 0 -30 13 -47 30
-17 16 -39 31 -50 33 -21 4 -101 38 -147 62 -15 8 -56 19 -90 26 -35 6 -67 15
-73 19 -16 11 -73 26 -130 33 -16 2 -46 11 -65 19 -20 8 -63 15 -97 16 -36 0
-75 8 -93 17 -46 24 -83 26 -110 5 -20 -15 -22 -20 -10 -24 20 -7 117 -26 157
-31 18 -2 53 -11 78 -20 25 -8 54 -15 65 -15 10 0 22 -4 25 -10 3 -5 15 -10
26 -10 10 0 27 -4 37 -9 9 -6 50 -20 89 -31 40 -12 75 -26 78 -31 4 -5 17 -9
30 -9 13 0 26 -4 29 -9 3 -4 26 -11 51 -14 24 -4 54 -11 65 -17 11 -5 29 -14
40 -20 10 -5 25 -7 33 -4 8 3 21 -6 31 -20 9 -15 23 -26 30 -26 15 0 68 -37
260 -183 114 -86 309 -308 358 -406 12 -25 30 -53 40 -63 10 -10 17 -21 16
-26 -3 -11 22 -80 48 -136 13 -28 24 -55 24 -62 0 -7 14 -42 30 -79 17 -37 30
-75 30 -85 0 -11 4 -21 8 -24 5 -3 14 -31 21 -63 7 -32 21 -78 31 -103 27 -70
78 -239 90 -304 7 -33 16 -67 21 -75 17 -32 39 -94 39 -112 0 -11 4 -27 10
-37 11 -20 60 -168 60 -183 0 -5 9 -31 21 -56 11 -25 18 -50 16 -57 -3 -6 1
-20 9 -31 8 -10 14 -27 14 -36 0 -26 51 -141 73 -166 11 -13 17 -23 13 -23 -3
0 7 -26 24 -57 16 -32 30 -65 30 -74 0 -10 22 -64 49 -120 58 -124 123 -200
207 -245 65 -34 182 -60 198 -44 6 6 24 10 40 10 17 1 47 7 66 14 19 8 62 24
95 37 33 12 74 32 90 43 37 26 61 41 100 62 87 47 233 176 282 247 15 23 53
71 83 107 30 36 66 82 78 103 13 20 27 37 32 37 8 0 80 95 80 106 0 3 14 23
30 44 17 21 30 45 30 53 0 20 56 127 81 153 10 11 19 34 19 52 0 17 5 34 10
37 6 3 10 14 10 23 0 9 14 51 31 92 17 41 33 94 35 118 3 24 13 60 24 80 11
20 20 48 20 62 0 14 5 31 11 37 6 6 15 46 19 89 5 44 14 102 20 129 36 170 43
972 8 1042 -8 17 -8 29 0 48 8 16 12 86 12 188 0 156 14 274 40 344 7 21 8 38
2 49 -7 13 -1 26 29 57 22 21 39 45 39 52 0 7 7 18 15 25 19 16 19 51 1 95
-13 29 -20 35 -46 35 -21 0 -41 -9 -59 -28z"/>
<path d="M8942 6652 c-9 -15 -10 -28 -3 -40 9 -16 10 -16 16 0 4 9 5 27 3 40
l-3 23 -13 -23z"/>
<path d="M10288 6658 c-23 -19 -68 -83 -68 -97 0 -7 -14 -30 -32 -52 -25 -31
-29 -42 -20 -51 10 -10 17 -10 32 0 11 6 37 12 59 12 34 0 45 -6 80 -46 25
-29 41 -57 41 -73 2 -254 17 -348 77 -468 31 -62 50 -73 90 -52 25 14 85 97
97 136 4 12 40 59 82 105 68 76 108 148 91 164 -20 20 -147 -92 -147 -129 0
-17 -58 -69 -69 -62 -4 2 -25 5 -47 6 -21 1 -44 6 -51 11 -6 5 -15 43 -18 84
-4 41 -11 77 -16 80 -5 3 -9 22 -9 42 0 20 -9 57 -21 81 -11 25 -24 79 -30
120 -6 42 -17 88 -24 102 -8 14 -12 29 -9 32 10 10 -36 67 -55 67 -9 0 -24 -6
-33 -12z"/>
<path d="M10986 6507 c-14 -18 -27 -43 -29 -57 -3 -14 -15 -45 -28 -69 -21
-42 -22 -45 -5 -55 9 -6 31 -23 49 -39 30 -26 32 -27 48 -10 14 15 49 162 49
205 0 16 -36 58 -50 58 -5 0 -20 -15 -34 -33z"/>
<path d="M8860 6465 c-7 -9 -10 -18 -7 -22 8 -7 37 15 37 28 0 14 -16 11 -30
-6z"/>
<path d="M13577 6383 c-5 -4 -50 -8 -100 -9 -225 -3 -513 -17 -524 -26 -6 -5
-37 -10 -70 -12 -32 -2 -87 -8 -123 -14 -36 -6 -96 -11 -135 -10 -38 0 -81 -3
-95 -6 -14 -4 -93 -8 -176 -11 -83 -2 -171 -10 -195 -16 -24 -7 -100 -13 -169
-14 -69 -1 -141 -6 -160 -13 -33 -10 -72 -15 -210 -27 -73 -6 -160 -23 -186
-37 -15 -7 -28 -7 -42 1 -11 6 -58 11 -104 11 -67 0 -100 6 -168 31 -110 39
-105 39 -102 4 4 -43 35 -98 63 -113 27 -15 215 -12 240 4 8 5 61 9 119 9 114
0 459 30 528 46 24 5 116 12 205 15 88 3 169 10 180 15 10 6 29 8 41 5 13 -3
67 2 122 11 54 8 160 17 234 18 74 2 173 8 220 13 47 6 186 14 310 17 130 4
230 11 238 17 8 7 16 7 25 -1 20 -16 169 -16 195 0 18 11 26 12 43 1 12 -8 25
-10 32 -5 7 5 116 8 242 6 127 -2 244 -3 260 -3 131 1 183 0 275 -5 98 -7 457
-11 855 -12 94 0 361 -2 595 -3 234 -1 522 -2 640 -1 118 1 269 2 335 2 66 0
140 -4 165 -10 25 -6 75 -11 112 -11 66 0 69 -1 109 -40 53 -51 93 -54 144 -9
27 24 35 39 35 66 0 30 -4 36 -37 50 -27 11 -46 13 -68 6 -17 -5 -50 -5 -75
-1 -25 5 -56 7 -70 4 -14 -2 -88 2 -164 10 -77 7 -142 12 -144 9 -3 -3 -11 0
-18 6 -8 7 -14 7 -19 -1 -9 -14 -128 -13 -160 2 -20 9 -34 9 -61 -1 -25 -9
-39 -10 -48 -2 -19 16 -945 17 -974 2 -17 -9 -27 -9 -44 0 -17 9 -158 13 -523
15 -1089 6 -1522 11 -1555 18 -19 4 -39 4 -43 -1z"/>
<path d="M10115 6350 c-3 -5 -14 -10 -24 -10 -10 0 -28 -11 -41 -25 -13 -14
-28 -25 -34 -25 -16 -1 -66 -75 -105 -155 -19 -38 -42 -86 -52 -106 -11 -20
-19 -46 -19 -57 0 -12 -4 -23 -9 -26 -5 -4 -12 -25 -16 -49 -4 -23 -18 -66
-31 -95 -13 -29 -24 -61 -24 -70 0 -23 -58 -184 -71 -197 -5 -5 -9 -15 -9 -23
0 -19 -50 -143 -65 -162 -14 -17 -35 -109 -35 -150 0 -29 38 -70 65 -70 16 0
61 66 76 110 6 19 18 51 26 70 15 34 23 50 69 140 20 40 34 86 51 172 3 15 11
33 19 39 8 6 14 20 14 30 0 10 5 21 10 24 6 3 10 16 10 29 0 12 4 26 9 32 4 5
16 32 26 59 10 28 23 55 28 62 5 7 6 16 3 21 -6 10 14 68 40 115 9 16 22 56
29 90 7 34 29 91 49 125 20 35 36 72 36 82 0 22 -16 35 -25 20z"/>
</g>
</svg>
