<?xml version="1.0" encoding="iso-8859-1"?>
<!-- Generator: Adobe Illustrator 19.0.0, SVG Export Plug-In . SVG Version: 6.00 Build 0)  -->
<svg version="1.1" id="Layer_1" xmlns="http://www.w3.org/2000/svg" xmlns:xlink="http://www.w3.org/1999/xlink" x="0px" y="0px"
	 viewBox="0 0 210.414 210.414" style="enable-background:new 0 0 210.414 210.414;" xml:space="preserve">
<g>
	<g>
		<g>
			<path d="M105.207,0C47.196,0,0,47.196,0,105.207c0,58.011,47.196,105.207,105.207,105.207
				c58.011,0,105.207-47.196,105.207-105.207C210.414,47.196,163.218,0,105.207,0z M105.207,202.621
				c-53.715,0-97.414-43.699-97.414-97.414c0-53.715,43.699-97.414,97.414-97.414c53.715,0,97.414,43.699,97.414,97.414
				C202.621,158.922,158.922,202.621,105.207,202.621z"/>
			<path d="M155.862,101.31h-46.759V54.552c0-2.152-1.745-3.897-3.897-3.897s-3.897,1.745-3.897,3.897v46.759H54.552
				c-2.152,0-3.897,1.745-3.897,3.897c0,2.152,1.745,3.897,3.897,3.897h46.759v46.759c0,2.152,1.745,3.897,3.897,3.897
				s3.897-1.745,3.897-3.897v-46.759h46.759c2.152,0,3.897-1.745,3.897-3.897C159.759,103.055,158.014,101.31,155.862,101.31z"/>
		</g>
	</g>
</g>
<g>
</g>
<g>
</g>
<g>
</g>
<g>
</g>
<g>
</g>
<g>
</g>
<g>
</g>
<g>
</g>
<g>
</g>
<g>
</g>
<g>
</g>
<g>
</g>
<g>
</g>
<g>
</g>
<g>
</g>
</svg>
